<?xml version="1.0" encoding="UTF-8"?>
<svg version="1.1" xmlns="http://www.w3.org/2000/svg" width="4322" height="4320">
<path d="M0 0 C1.04374314 0.00826467 2.08748629 0.01652933 3.16285801 0.02504444 C35.09806628 0.27798759 67.03306736 0.5510118 98.9679206 0.84540391 C105.51249242 0.90570818 112.05707234 0.96496924 118.6016627 1.02322614 C165.07455557 1.43754933 211.54113808 2.01007985 258.00728226 2.91661382 C261.20116614 2.97890681 264.39506204 3.04055489 267.58895874 3.1021862 C361.55477007 4.9276627 455.44615219 8.9956508 728 29 C728.91597961 29.10852295 729.83195923 29.2170459 730.7756958 29.32885742 C824.33869921 40.50551185 916.716818 60.71166125 1104 130 C1105.1348584 130.51030762 1106.2697168 131.02061523 1107.43896484 131.54638672 C1136.33733643 144.575686 1165.04022064 158.49041119 1192.41210938 174.50097656 C1195.11867057 176.06873937 1197.84441084 177.59730288 1200.578125 179.1171875 C1225.64787239 193.06173869 1249.59027397 208.54199457 1273.36645508 224.55712891 C1276.72667902 226.81926331 1280.09851313 229.06336989 1283.47265625 231.3046875 C1288.04660531 234.35142357 1292.57858008 237.44740109 1297.0625 240.625 C1297.77092041 241.12660645 1298.47934082 241.62821289 1299.20922852 242.14501953 C1318.46015287 255.82812004 1337.17565227 270.15795012 1355.45703125 285.109375 C1358.34756054 287.47317203 1361.2606944 289.80617817 1364.1875 292.125 C1369.65029866 296.48429509 1374.97253698 301.00611841 1380.28808594 305.54248047 C1381.99222891 306.99338371 1383.70256337 308.4366921 1385.4140625 309.87890625 C1392.38993788 315.77967148 1399.15271857 321.86293391 1405.80273438 328.12890625 C1408.94323436 331.08739623 1412.09826782 334.00387242 1415.375 336.8125 C1418.95405738 339.88801034 1422.24643834 343.20786722 1425.53125 346.59375 C1427.49471846 348.5075104 1429.47866955 350.28593989 1431.55859375 352.06640625 C1436.61307592 356.45418208 1441.32562484 361.1753928 1446.0456543 365.9152832 C1447.5599258 367.43491668 1449.0794743 368.94912517 1450.59960938 370.46289062 C1455.42328212 375.28361005 1460.12487145 380.16028305 1464.56225586 385.34399414 C1466.43902085 387.50566793 1468.4459903 389.50730403 1470.5 391.5 C1473.84933729 394.80986698 1476.99925956 398.20746949 1480.0625 401.78125 C1481.98568756 403.98360994 1483.9603053 406.13240641 1485.94921875 408.27539062 C1490.6862247 413.38227238 1495.19386643 418.60166257 1499.5625 424.03125 C1502.42926333 427.52282072 1505.39781195 430.91520728 1508.375 434.3125 C1514.0416532 440.80136057 1519.41065138 447.47519076 1524.67480469 454.29248047 C1525.97313175 455.96538015 1527.28439208 457.62706532 1528.6015625 459.28515625 C1540.32335305 474.04995756 1551.58265183 489.16067494 1562.35009766 504.63476562 C1564.20837295 507.29871517 1566.07871258 509.95400032 1567.94921875 512.609375 C1575.19016111 522.91552766 1582.22439147 533.27501067 1588.78271484 544.02783203 C1590.05835291 546.09453967 1591.36262141 548.1405363 1592.67578125 550.18359375 C1606.39389822 571.55038591 1619.09351682 593.57653937 1631 616 C1631.46116211 616.86592773 1631.92232422 617.73185547 1632.39746094 618.62402344 C1646.57456635 645.31554806 1660.2120677 672.31407159 1672.17175293 700.07781982 C1673.02513004 702.05832132 1673.8822362 704.03718652 1674.73925781 706.01611328 C1711.70900502 791.61790488 1737.91702273 881.66344936 1789.125 1252.1875 C1789.16573891 1252.95879368 1789.20647781 1253.73008736 1789.24845123 1254.52475357 C1789.73176125 1263.69782625 1790.18724429 1272.87189409 1790.61906997 1282.04752719 C1790.82318782 1286.36068503 1791.03282156 1290.67339263 1791.25798596 1294.9855068 C1793.05181328 1329.46013075 1793.2967922 1363.89795217 1793.27679439 1398.40820998 C1793.2724177 1406.70593605 1793.28001317 1415.00364294 1793.28767375 1423.30136513 C1793.30164537 1438.79976056 1793.30634658 1454.29814577 1793.30570221 1469.79654694 C1793.3050769 1485.46986798 1793.30881367 1501.14317916 1793.31768227 1516.8164978 C1793.31824205 1517.81217741 1793.31880184 1518.80785702 1793.31937859 1519.83370874 C1793.32167065 1523.89006258 1793.32398905 1527.94641641 1793.32634189 1532.00277023 C1793.35075625 1574.16420245 1793.36099601 1616.32563062 1793.36586904 1658.4870691 C1793.36639282 1663.01540786 1793.36691866 1667.54374662 1793.36744571 1672.07208538 C1793.36757477 1673.19603767 1793.36770383 1674.31998995 1793.3678368 1675.4780014 C1793.37075172 1700.46765681 1793.37691561 1725.45731109 1793.38354302 1750.44696575 C1793.38626682 1760.76134978 1793.38889801 1771.07573383 1793.39152867 1781.39011788 C1793.39181958 1782.53004604 1793.39211049 1783.6699742 1793.39241022 1784.84444563 C1793.40901758 1850.11064058 1793.42088681 1915.37683499 1793.42332363 1980.64303207 C1793.42341826 1983.08195647 1793.42351327 1985.52088086 1793.42360866 1987.95980525 C1793.42403635 1998.96941041 1793.42444173 2009.97901557 1793.42484702 2020.98862073 C1793.42502862 2025.89727655 1793.42521351 2030.80593237 1793.42539909 2035.71458819 C1793.42549111 2038.17145135 1793.42558151 2040.62831452 1793.42567028 2043.08517768 C1793.42848173 2120.69253896 1793.45018698 2198.29987422 1793.48706055 2275.90722656 C1793.51458106 2333.8393358 1793.54043789 2391.77144001 1793.54700565 2449.70355606 C1793.54713909 2450.87283231 1793.54727253 2452.04210856 1793.54741001 2453.24681742 C1793.55028405 2478.93113811 1793.55169961 2504.6154587 1793.55176822 2530.29977955 C1793.5518079 2539.49320095 1793.55196481 2548.68662235 1793.55218274 2557.88004375 C1793.55223639 2560.16669186 1793.5522845 2562.45333998 1793.55232707 2564.7399881 C1793.5530667 2600.98663788 1793.56863687 2637.23326177 1793.59193837 2673.47990348 C1793.6153447 2710.05104151 1793.62233909 2746.62214646 1793.6077575 2783.19329006 C1793.60573069 2788.27988131 1793.60387652 2793.36647261 1793.60212517 2798.45306396 C1793.60177511 2799.44989142 1793.60142506 2800.44671887 1793.60106439 2801.47375322 C1793.59664682 2815.17594534 1793.60329857 2828.87808932 1793.61956405 2842.580272 C1793.80083028 2995.28523359 1793.80083028 2995.28523359 1788.52603832 3059.41251673 C1787.75936234 3068.82093589 1787.11796981 3078.23864343 1786.46156979 3087.65526962 C1785.0818501 3107.4454605 1783.58093033 3127.22488543 1782 3147 C1781.93852783 3147.76957787 1781.87705566 3148.53915573 1781.8137207 3149.33205414 C1774.45783293 3241.26273533 1762.48059559 3332.33473895 1660 3646 C1659.46858398 3647.13872559 1658.93716797 3648.27745117 1658.38964844 3649.45068359 C1652.7025476 3661.60141474 1646.75111936 3673.5776218 1640.39697266 3685.39306641 C1638.86081151 3688.25974391 1637.34239754 3691.13547983 1635.82421875 3694.01171875 C1627.94257679 3708.8774814 1619.60083395 3723.41742828 1610.91113281 3737.82470703 C1609.14441916 3740.76005166 1607.39413053 3743.70446748 1605.6484375 3746.65234375 C1584.45885066 3782.21333698 1560.45607765 3816.37667719 1535 3849 C1534.36529785 3849.81597656 1534.36529785 3849.81597656 1533.71777344 3850.6484375 C1523.23137324 3864.12319008 1512.48817565 3877.38730385 1501.39453125 3890.3671875 C1499.92660401 3892.08593704 1498.46321759 3893.80848996 1497 3895.53125 C1491.58769172 3901.88993509 1486.10740806 3908.16263906 1480.44921875 3914.3046875 C1478.52312661 3916.42431043 1476.63335259 3918.5636366 1474.75537109 3920.7253418 C1462.62075141 3934.60208031 1449.55298409 3947.60800146 1436.5090332 3960.62133789 C1434.03271457 3963.09189645 1431.56100308 3965.5670086 1429.09053135 3968.04341221 C1426.68909546 3970.44935353 1424.28383299 3972.85145426 1421.87890625 3975.25390625 C1420.56775597 3976.56809288 1420.56775597 3976.56809288 1419.2301178 3977.90882874 C1414.85822907 3982.26415176 1410.43081876 3986.48617807 1405.74029541 3990.49781799 C1402.80448637 3993.0319392 1400.00799579 3995.71418566 1397.1875 3998.375 C1392.14434182 4003.09873109 1386.97309024 4007.56834291 1381.578125 4011.890625 C1378.9757371 4014.01985146 1376.48424498 4016.23449357 1374 4018.5 C1368.82485184 4023.20468015 1363.4379716 4027.60436343 1358 4032 C1356.76879913 4033.01082767 1355.53837382 4034.02260049 1354.30859375 4035.03515625 C1345.70642595 4042.1012988 1336.94229542 4048.89289858 1327.99560547 4055.51611328 C1326.0009368 4056.99930341 1324.01657343 4058.49525693 1322.03515625 4059.99609375 C1306.33187666 4071.88580378 1290.14766074 4083.03067512 1273.75 4093.9375 C1272.89493866 4094.50682251 1272.03987732 4095.07614502 1271.15890503 4095.66271973 C1258.58843772 4104.02611951 1245.9911494 4112.29955988 1233 4120 C1232.04673828 4120.5657373 1231.09347656 4121.13147461 1230.11132812 4121.71435547 C1217.19278715 4129.35720802 1204.17574861 4136.8101616 1191 4144 C1190.0709082 4144.50966309 1189.14181641 4145.01932617 1188.18457031 4145.54443359 C1109.47482529 4188.66556613 1025.32387315 4222.24723606 375.59728241 4310.97196198 C372.02670953 4311.01050681 368.45614921 4311.0501604 364.88558769 4311.08974171 C274.52898936 4312.08950805 184.16838544 4312.71854682 8.91455078 4313.73339844 C7.88631068 4313.73861958 6.85807057 4313.74384072 5.79867168 4313.74922007 C-50.65621944 4314.03541362 -107.1112346 4314.29143894 -163.56640625 4314.515625 C-164.2501103 4314.51834167 -164.93381435 4314.52105834 -165.6382367 4314.52385734 C-239.2422245 4314.81605977 -312.84616446 4315.04494665 -540.41572189 4315.23744202 C-541.93632832 4315.23767112 -543.45693474 4315.23790093 -544.97754116 4315.23813146 C-545.73045516 4315.23824543 -546.48336916 4315.23835941 -547.25909874 4315.23847683 C-550.30258181 4315.2389397 -553.34606487 4315.2394086 -556.38954794 4315.23988207 C-557.91195849 4315.24011695 -559.43436905 4315.24034705 -560.9567796 4315.24057238 C-583.97368661 4315.24401721 -606.99056805 4315.25759099 -630.00746504 4315.27909488 C-777.47956722 4315.41637937 -777.47956722 4315.41637937 -984.85546875 4313.609375 C-985.82290655 4313.59349874 -986.79034434 4313.57762247 -987.78709844 4313.56126511 C-1027.98958034 4312.90037745 -1068.18617644 4312.04489836 -1108.38012695 4310.98535156 C-1109.13765644 4310.96551797 -1109.89518592 4310.94568437 -1110.67567085 4310.92524976 C-1127.97352562 4310.47199975 -1145.26708899 4309.94244927 -1162.55900574 4309.29974365 C-1163.31015887 4309.27184668 -1164.061312 4309.2439497 -1164.83522735 4309.21520737 C-1247.30008235 4306.13414904 -1329.58344482 4300.3709489 -1700 4229 C-1701.15178741 4228.63068359 -1701.15178741 4228.63068359 -1702.32684326 4228.25390625 C-1745.10331784 4214.5064651 -1787.06094217 4198.53099171 -1828 4180 C-1829.55775146 4179.29834717 -1829.55775146 4179.29834717 -1831.14697266 4178.58251953 C-1860.22738833 4165.43960205 -1889.09424401 4151.45814605 -1916.65771484 4135.35253906 C-1919.59251823 4133.65785376 -1922.56403197 4132.03711721 -1925.54174805 4130.41943359 C-1950.00257704 4117.08829571 -1973.21116721 4101.78636528 -1996.25726318 4086.17895508 C-1998.71635341 4084.51538954 -2001.18082381 4082.85984209 -2003.64453125 4081.203125 C-2020.56544105 4069.7772456 -2036.85586246 4057.49158149 -2053 4045 C-2053.62245605 4044.51934082 -2054.24491211 4044.03868164 -2054.88623047 4043.54345703 C-2062.38163916 4037.74527306 -2069.70206027 4031.7808065 -2076.90625 4025.625 C-2079.7955132 4023.16084036 -2082.73518458 4020.76339 -2085.6875 4018.375 C-2090.0787038 4014.80357231 -2094.28109938 4011.06883787 -2098.4609375 4007.25390625 C-2101.11895465 4004.89440487 -2103.85392294 4002.66275885 -2106.625 4000.4375 C-2110.71059754 3997.1333951 -2114.44535454 3993.67047644 -2118.1015625 3989.90234375 C-2120.63700126 3987.36168804 -2123.34591635 3985.05351051 -2126.06640625 3982.71484375 C-2128.53132738 3980.52878238 -2130.81891572 3978.19478927 -2133.12428284 3975.84303284 C-2134.93563845 3974.06324005 -2136.80446823 3972.40747704 -2138.73413086 3970.75756836 C-2142.9102119 3967.1248937 -2146.84725492 3963.29756508 -2150.75390625 3959.37890625 C-2151.45845444 3958.67531479 -2152.16300262 3957.97172333 -2152.88890076 3957.24681091 C-2154.36653367 3955.76985352 -2155.84292457 3954.29165258 -2157.31811523 3952.81225586 C-2159.55666481 3950.56834915 -2161.80050473 3948.32983296 -2164.04492188 3946.09179688 C-2165.48990404 3944.64615382 -2166.93457592 3943.20020055 -2168.37890625 3941.75390625 C-2169.03951553 3941.0953212 -2169.70012482 3940.43673615 -2170.38075256 3939.75819397 C-2174.21369755 3935.90620216 -2177.86318914 3931.94971578 -2181.3948822 3927.81919861 C-2183.02887024 3925.96727922 -2184.73683014 3924.2286606 -2186.5 3922.5 C-2189.51413582 3919.53264677 -2192.29917333 3916.42654708 -2195.05859375 3913.22265625 C-2197.28804061 3910.67023117 -2199.58001382 3908.18112486 -2201.875 3905.6875 C-2205.92521292 3901.24749216 -2209.75534122 3896.68065719 -2213.52734375 3892.00390625 C-2216.40883633 3888.50332522 -2219.38744562 3885.09742675 -2222.375 3881.6875 C-2227.98644643 3875.25761624 -2233.31759539 3868.65817144 -2238.52832031 3861.90136719 C-2240.1110899 3859.85647509 -2241.70679524 3857.8221568 -2243.3046875 3855.7890625 C-2251.16443117 3845.7715905 -2258.80900229 3835.61318519 -2266.30615234 3825.32177734 C-2267.93341162 3823.09127349 -2269.56943476 3820.86745137 -2271.20703125 3818.64453125 C-2280.21093815 3806.36597182 -2288.63433299 3793.71915922 -2297 3781 C-2297.49709473 3780.24928223 -2297.99418945 3779.49856445 -2298.50634766 3778.72509766 C-2320.78481361 3745.07892219 -2340.42168837 3709.79271556 -2359 3674 C-2359.53463867 3672.97213379 -2360.06927734 3671.94426758 -2360.62011719 3670.88525391 C-2401.85553709 3591.20741906 -2431.55361199 3504.94416997 -2500 3124 C-2500.09476624 3122.83736633 -2500.18953247 3121.67473267 -2500.28717041 3120.47686768 C-2509.24464507 3009.58345121 -2511.54755329 2897.90765633 -2515.29443359 2740.43115234 C-2515.30889978 2739.72482369 -2515.32336596 2739.01849503 -2515.33827052 2738.29076247 C-2516.00409345 2705.73827365 -2516.60602072 2673.18494723 -2517.0703125 2640.62890625 C-2517.08641778 2639.50191528 -2517.08641778 2639.50191528 -2517.10284841 2638.35215682 C-2518.44587625 2543.98987859 -2518.31067707 2449.62041863 -2518.25959553 2355.25068241 C-2518.25125708 2339.78593898 -2518.24656241 2324.32119716 -2518.24343221 2308.85645186 C-2518.22822757 2235.67128138 -2518.17326815 2162.48613971 -2517.20353964 1844.75416301 C-2517.19830195 1843.53122878 -2517.19306426 1842.30829454 -2517.18766785 1841.0483017 C-2517.18244282 1839.82843304 -2517.1772178 1838.60856438 -2517.17183444 1837.35173 C-2517.13532408 1828.80090955 -2517.0999694 1820.25008485 -2517.06526184 1811.6992569 C-2516.96105807 1786.05533624 -2516.85194988 1760.41145419 -2516.72664416 1734.76762682 C-2516.71588449 1732.56518559 -2516.70512651 1730.36274436 -2516.69437027 1728.16030312 C-2516.68909956 1727.08233041 -2516.68382885 1726.0043577 -2516.67839842 1724.89371915 C-2516.64327539 1717.64483164 -2516.61165747 1710.39593501 -2516.58178329 1703.14702415 C-2516.25003642 1623.49395695 -2514.92570465 1543.85030022 -2512.36765671 1464.23611832 C-2512.24503022 1460.40732752 -2512.1245568 1456.57847311 -2512.00442505 1452.74960327 C-2510.59368021 1407.88984196 -2508.9136568 1363.04069587 -2507.1313324 1318.19428635 C-2507.00324073 1314.97095021 -2506.87564059 1311.74759529 -2506.74855042 1308.52421951 C-2502.6168505 1203.74231456 -2502.6168505 1203.74231456 -2498.6875 1159.375 C-2498.58395203 1158.18079437 -2498.48040405 1156.98658875 -2498.37371826 1155.75619507 C-2490.02358712 1059.78137593 -2473.90789018 965.06678611 -2379 682 C-2378.53062012 681.00629395 -2378.06124023 680.01258789 -2377.57763672 678.98876953 C-2374.10224325 671.63436547 -2370.57052807 664.30866715 -2367 657 C-2366.54466888 656.06776611 -2366.54466888 656.06776611 -2366.08013916 655.11669922 C-2357.70178809 637.98045077 -2349.03774857 621.1208841 -2339.48632812 604.60107422 C-2337.07089195 600.37406091 -2334.76056831 596.09071667 -2332.4375 591.8125 C-2326.90959908 581.69978099 -2321.03184505 571.81915807 -2315 562 C-2314.41702148 561.0507666 -2313.83404297 560.1015332 -2313.23339844 559.12353516 C-2304.45755798 544.87622206 -2295.39858799 530.8440973 -2286 517 C-2285.24976562 515.89422607 -2285.24976562 515.89422607 -2284.484375 514.76611328 C-2263.49682729 483.89833897 -2241.10602582 453.98365907 -2216.87768555 425.57861328 C-2214.06950367 422.28336576 -2211.33308511 418.9402207 -2208.625 415.5625 C-2203.99722783 409.86934143 -2199.00608975 404.54957238 -2193.98828125 399.203125 C-2191.79539746 396.86386908 -2189.65168627 394.49547641 -2187.5625 392.0625 C-2176.55274347 379.34587375 -2164.62208375 367.4623878 -2152.72070312 355.59033203 C-2150.1042936 352.97933645 -2147.49334454 350.3629644 -2144.8828125 347.74609375 C-2143.19563343 346.05957472 -2141.50814458 344.37336551 -2139.8203125 342.6875 C-2139.05244415 341.91760742 -2138.28457581 341.14771484 -2137.49343872 340.35449219 C-2133.37935598 336.25805291 -2129.1852716 332.31898513 -2124.7775116 328.53939819 C-2121.83257628 325.98896301 -2119.02081077 323.2979038 -2116.1875 320.625 C-2111.14434182 315.90126891 -2105.97309024 311.43165709 -2100.578125 307.109375 C-2097.9757371 304.98014854 -2095.48424498 302.76550643 -2093 300.5 C-2087.82485184 295.79531985 -2082.4379716 291.39563657 -2077 287 C-2075.76879913 285.98917233 -2074.53837382 284.97739951 -2073.30859375 283.96484375 C-2064.70227484 276.89529132 -2055.93364928 270.10118916 -2046.98242188 263.47509766 C-2045.02625445 262.01953564 -2043.08174836 260.54976811 -2041.140625 259.07421875 C-1973.58760501 207.7850678 -1898.59885431 165.4827533 -1820.89453125 131.69970703 C-1817.60697584 130.26875759 -1814.33216061 128.81130567 -1811.0625 127.33984375 C-1781.75933609 114.2209103 -1751.49699913 103.08916111 -1721.12255859 92.72467041 C-1718.95853589 91.98584359 -1716.79563136 91.24380761 -1714.6328125 90.50146484 C-1627.8271996 60.76191806 -1538.10500047 40.00296504 -1346.7578125 18.6015625 C-1345.68671108 18.53941496 -1344.61560966 18.47726742 -1343.51205063 18.41323662 C-1308.97153435 16.43202362 -1274.39532938 15.15275008 -1239.8262291 13.78788757 C-1234.04975945 13.55974406 -1228.27336575 13.32971258 -1222.49697876 13.0994873 C-1117.85150942 8.93154787 -1013.19215792 5.23637335 -690.08752155 0.08627987 C-680.26130468 0.02689376 -670.43511678 -0.03609812 -660.60893631 -0.10122013 C-567.92914722 -0.71538795 -475.24937044 -1.05749428 0 0 Z M-841.82246126 390.96889147 C-843.99078451 390.99986835 -846.15911187 391.03054121 -848.32744062 391.06113076 C-865.23975765 391.30004546 -882.1512762 391.56804958 -899.0625 391.875 C-900.19902134 391.89538582 -901.33554268 391.91577164 -902.50650406 391.93677521 C-1013.27538008 393.92396373 -1124.08101905 396.89012431 -1314 408 C-1315.0918158 408.10227905 -1316.18363159 408.20455811 -1317.30853271 408.30993652 C-1417.28636413 417.76470679 -1517.1243028 434.91106944 -1669 494 C-1670.06283203 494.49564453 -1671.12566406 494.99128906 -1672.22070312 495.50195312 C-1698.25794596 507.67833471 -1723.49252291 520.9946971 -1748 536 C-1748.8971875 536.54930176 -1749.794375 537.09860352 -1750.71875 537.66455078 C-1774.49485892 552.29988326 -1797.24054202 568.51173997 -1819 586 C-1819.928125 586.74507812 -1820.85625 587.49015625 -1821.8125 588.2578125 C-1831.89336228 596.43386069 -1841.77784778 604.87421732 -1851.37646484 613.61206055 C-1853.11300186 615.19265505 -1854.8534344 616.7689812 -1856.59790039 618.34082031 C-1864.10069184 625.1434207 -1871.33536923 632.18003439 -1878.48364258 639.35327148 C-1880.32454708 641.19958246 -1882.17080272 643.04042273 -1884.01757812 644.88085938 C-1889.89354755 650.75352292 -1895.61945329 656.66451801 -1901 663 C-1902.61967817 664.77570221 -1904.24411718 666.54708307 -1905.875 668.3125 C-1910.79624205 673.71476571 -1915.4139906 679.31305671 -1920 685 C-1920.97407866 686.18326549 -1921.94941 687.36550053 -1922.92578125 688.546875 C-1973.46259179 749.87041552 -2014.19427635 820.56827998 -2050 914 C-2050.2548114 914.69913513 -2050.5096228 915.39827026 -2050.77215576 916.11859131 C-2081.1068454 999.60964877 -2097.7210364 1088.18434298 -2105.9609375 1188.76953125 C-2106.04615221 1189.86001266 -2106.13136692 1190.95049408 -2106.21916389 1192.07402039 C-2108.04762305 1215.59226184 -2109.47896936 1239.12657089 -2110.75710678 1262.68043137 C-2110.94213537 1266.08529944 -2111.12907274 1269.49005889 -2111.3163147 1272.89480591 C-2117.16616894 1379.52754625 -2121.39521772 1486.26750069 -2124.54638672 1678.20263672 C-2124.56220626 1679.93131265 -2124.56220626 1679.93131265 -2124.57834539 1681.69491133 C-2125.09334401 1738.14688317 -2125.14882669 1794.59801347 -2125.13530029 1851.05189169 C-2125.13291982 1861.19381403 -2125.13272921 1871.33573478 -2125.13381577 1881.47765732 C-2125.13389215 1882.2177461 -2125.13396854 1882.95783489 -2125.13404724 1883.72035061 C-2125.13435902 1886.73149179 -2125.13467746 1889.74263297 -2125.135007 1892.75377415 C-2125.13803039 1920.72527856 -2125.13535774 1948.69677972 -2125.1299101 1976.66828362 C-2125.12538076 2000.09942339 -2125.12529908 2023.53055821 -2125.12991667 2046.96169796 C-2125.14464765 2121.85302278 -2125.15682475 2196.74444082 -2124.1918726 2499.17131042 C-2124.03091625 2531.00623193 -2123.89002762 2562.84120588 -2123.76025391 2594.67626953 C-2123.75580852 2595.76594239 -2123.75136313 2596.85561525 -2123.74678303 2597.9783085 C-2123.71699377 2605.28600429 -2123.6873791 2612.59370078 -2123.65786743 2619.90139771 C-2123.6518447 2621.3921793 -2123.6518447 2621.3921793 -2123.64570029 2622.9130777 C-2123.60548468 2632.87417227 -2123.56551275 2642.83526764 -2123.52653326 2652.79636712 C-2123.51079603 2656.80468489 -2123.49481739 2660.81300167 -2123.47879802 2664.82131831 C-2123.47142942 2666.67956528 -2123.46416684 2668.53781267 -2123.45702852 2670.39606054 C-2123.41962758 2680.12568451 -2123.37278367 2689.85516712 -2123.30680752 2699.58464336 C-2123.30104847 2700.43412749 -2123.29528942 2701.28361161 -2123.28935586 2702.15883767 C-2123.01659885 2740.83992738 -2122.07289846 2779.50868063 -2121.07295656 2818.17669678 C-2121.00000546 2820.99978888 -2120.92746208 2823.82289122 -2120.85500717 2826.64599609 C-2120.20684601 2851.86759985 -2119.51467706 2877.08783712 -2118.79866105 2902.30759764 C-2118.61278763 2908.87024425 -2118.43163835 2915.43301091 -2118.25268555 2921.99584961 C-2117.25014518 2958.72619683 -2116.21969129 2995.44949734 -2114.453125 3032.15234375 C-2114.39343096 3033.39530401 -2114.33373692 3034.63826427 -2114.27223396 3035.91889 C-2109.41162872 3135.77140993 -2097.76423141 3235.12581461 -1933 3619 C-1932.25363281 3619.92941406 -1931.50726562 3620.85882812 -1930.73828125 3621.81640625 C-1922.04901795 3632.53368433 -1913.06046477 3642.97990302 -1903.66796875 3653.0859375 C-1901.67003994 3655.26815549 -1899.72603454 3657.47065518 -1897.79589844 3659.71118164 C-1894.21274713 3663.81101601 -1890.45285509 3667.692175 -1886.59765625 3671.53515625 C-1885.91626083 3672.21750839 -1885.23486542 3672.89986053 -1884.53282166 3673.60289001 C-1883.10294259 3675.03344437 -1881.67182089 3676.46275767 -1880.23950195 3677.89086914 C-1878.06802289 3680.05699074 -1875.90193675 3682.22840174 -1873.73632812 3684.40039062 C-1872.33625798 3685.79979987 -1870.93587762 3687.19889884 -1869.53515625 3688.59765625 C-1868.89844498 3689.23639175 -1868.2617337 3689.87512726 -1867.60572815 3690.53321838 C-1863.77480648 3694.34458322 -1859.82994005 3697.9717648 -1855.73724365 3701.50086975 C-1853.5159046 3703.41774339 -1851.35293869 3705.39538705 -1849.1875 3707.375 C-1844.9455915 3711.19914478 -1840.59448903 3714.84889455 -1836.15234375 3718.4375 C-1833.81140119 3720.33020913 -1831.49750788 3722.25250175 -1829.19140625 3724.1875 C-1818.77219609 3732.90621993 -1808.03500361 3741.07755189 -1797 3749 C-1796.25685547 3749.53399414 -1795.51371094 3750.06798828 -1794.74804688 3750.61816406 C-1727.93511753 3798.48989471 -1654.80889889 3834.05325629 -1523 3876 C-1522.26881958 3876.1918689 -1521.53763916 3876.38373779 -1520.78430176 3876.5814209 C-1432.94380687 3899.59548468 -1343.16963226 3906.81700423 -852.1796875 3925.078125 C-851.52080056 3925.08884609 -850.86191362 3925.09956717 -850.18306041 3925.11061314 C-777.33505516 3926.29346028 -704.48734756 3926.27298604 -631.6316096 3926.20319665 C-617.95329629 3926.19016807 -604.27499904 3926.18473069 -590.59667969 3926.18530273 C-499.77783408 3926.18817236 -408.97019884 3925.95172662 -275.62206459 3924.43772316 C-239.56533235 3924.00833392 -203.50756181 3923.74693555 -167.44921875 3923.5 C-166.69679156 3923.49484375 -165.94436436 3923.4896875 -165.16913635 3923.484375 C-145.74119886 3923.35132995 -126.31323788 3923.22187264 -106.88526738 3923.09375 C-77.32323153 3922.89878719 -47.76121992 3922.70014772 -18.19921875 3922.5 C-17.43812959 3922.49484789 -16.67704042 3922.48969578 -15.89288795 3922.48438755 C109.77068136 3921.68031859 109.77068136 3921.68031859 250.6596756 3920.12402344 C254.50565021 3920.07089834 258.35163705 3920.01871718 262.19762814 3919.96680009 C405.89375071 3918.30339643 405.89375071 3918.30339643 1017.16748047 3789.69189453 C1019.86500473 3788.08063414 1022.5729233 3786.48868643 1025.28515625 3784.90234375 C1036.87638353 3778.08934975 1048.00826618 3770.73920613 1059 3763 C1059.63631348 3762.55414551 1060.27262695 3762.10829102 1060.92822266 3761.64892578 C1088.01550571 3742.64325456 1114.09002236 3722.04709289 1138.33666992 3699.51977539 C1139.55709911 3698.40467607 1140.79106146 3697.30434103 1142.0324707 3696.21264648 C1149.51750498 3689.60298195 1156.56652266 3682.58558855 1163.61450195 3675.51586914 C1165.69044426 3673.43454811 1167.77170422 3671.35865187 1169.85351562 3669.28320312 C1171.19823752 3667.93782062 1172.54264929 3666.59212806 1173.88671875 3665.24609375 C1174.49730637 3664.63753036 1175.10789398 3664.02896698 1175.73698425 3663.40196228 C1179.47636896 3659.64252588 1183.02662316 3655.76211392 1186.4907074 3651.74740601 C1188.41170362 3649.52334399 1190.39217473 3647.35645255 1192.375 3645.1875 C1196.19597138 3640.94911157 1199.84247331 3636.60120897 1203.4296875 3632.1640625 C1205.35180461 3629.7871519 1207.29965269 3627.43324057 1209.2578125 3625.0859375 C1265.84512721 3557.15437482 1308.03500979 3477.25252126 1338 3390 C1338.22860718 3389.33327271 1338.45721436 3388.66654541 1338.69274902 3387.97961426 C1369.68935055 3297.4856813 1384.95708442 3202.20980707 1402.88835144 2912.59519958 C1403.00486182 2908.84344445 1403.12185253 2905.09170449 1403.2388916 2901.33996582 C1403.79260828 2883.56779837 1404.33470182 2865.79529982 1404.86802858 2848.02250904 C1404.99413717 2843.82378739 1405.12138376 2839.62510256 1405.24980545 2835.42645103 C1405.81302071 2817.01110649 1406.33079835 2798.59494488 1406.8103404 2780.17723471 C1406.93707941 2775.33103886 1407.06940103 2770.48502927 1407.20561409 2765.63909084 C1409.40137617 2687.43552733 1409.28135254 2609.23303136 1409.20310205 2531.00633597 C1409.19004846 2517.89514477 1409.1814293 2504.78395616 1409.17523193 2491.67276001 C1409.13005984 2398.62694148 1409.04640764 2305.58091369 1408.15808213 2164.63556647 C1408.03663528 2146.8344042 1407.92490287 2129.03319033 1407.81734993 2111.23193948 C1407.77870426 2104.83584439 1407.73996635 2098.43974986 1407.70121765 2092.0436554 C1407.6946788 2090.96419621 1407.6946788 2090.96419621 1407.68800785 2089.86292977 C1407.20884605 2010.80014935 1406.69466751 1931.73752591 1404.46213758 1663.49755991 C1404.43759535 1660.76063291 1404.41307533 1658.02370571 1404.3885622 1655.28677845 C1403.94583099 1605.86031071 1403.49244169 1556.43395061 1403.01921082 1507.007765 C1403.00028242 1505.02951676 1402.98139548 1503.05126814 1402.96250916 1501.0730195 C1402.82042027 1486.18998409 1402.67570714 1471.30698011 1402.52452278 1456.42403412 C1402.48582176 1452.61300174 1402.44794832 1448.80196295 1402.41097832 1444.99091339 C1402.2217143 1425.56778891 1401.95361468 1406.14805648 1401.56665039 1386.7277832 C1401.54876587 1385.82900692 1401.53088135 1384.93023063 1401.51245487 1384.0042187 C1399.5063917 1284.25236766 1393.81917689 1184.59752816 1338 928 C1337.66902313 926.98640411 1337.66902313 926.98640411 1337.33135986 925.95233154 C1320.38995308 874.23253021 1298.39810131 823.50144213 1270 777 C1269.01443643 775.35878608 1268.03002878 773.71687737 1267.046875 772.07421875 C1261.30729573 762.52804836 1255.30834265 753.1798567 1249 744 C1248.5560791 743.35272949 1248.1121582 742.70545898 1247.65478516 742.03857422 C1239.73004268 730.53275319 1231.32417385 719.41380367 1222.80224609 708.34570312 C1221.24163757 706.314502 1219.69001809 704.27708593 1218.14453125 702.234375 C1213.17234878 695.67729133 1207.98588975 689.34775942 1202.6328125 683.1015625 C1200.29496349 680.36706908 1198.05067752 677.5668698 1195.8125 674.75 C1189.91278724 667.49694812 1183.38073207 660.82449558 1176.94091797 654.05419922 C1174.1770649 651.12903448 1171.46409789 648.15872295 1168.75 645.1875 C1161.15336472 636.91380962 1153.344602 628.84876502 1144.78125 621.56640625 C1142.99120583 619.99226653 1141.34309782 618.3391685 1139.6875 616.625 C1136.00937574 612.88015239 1131.9655713 609.66491855 1127.87890625 606.37890625 C1125.05594403 604.04622784 1122.36963388 601.61752795 1119.6875 599.125 C1114.02088981 593.92260364 1108.05527463 589.21370384 1101.96582031 584.52441406 C1099.88937157 582.91421213 1097.8304407 581.28339556 1095.7734375 579.6484375 C1085.91077642 571.83817884 1075.7957978 564.54831337 1065.33496094 557.56152344 C1063.0633314 556.04235337 1060.80036331 554.51105228 1058.5390625 552.9765625 C986.52520343 504.28170462 906.00758857 470.31346247 699 421 C697.70337433 420.7924408 697.70337433 420.7924408 696.3805542 420.58068848 C636.12569006 410.98414451 575.15871862 406.24877339 514.265625 403.078125 C513.4499128 403.03547343 512.63420059 402.99282186 511.79376984 402.94887781 C472.3156269 400.88800902 432.82024361 399.46464144 393.31115556 398.15268266 C386.84725873 397.93767233 380.38354627 397.71767227 373.91992188 397.49462891 C348.61455955 396.62165166 323.30833278 395.78250434 298 395 C297.20983238 394.97552103 296.41966476 394.95104206 295.60555267 394.9258213 C203.71504894 392.08495368 111.76069784 390.83644268 -9.30560571 390.40440231 C-17.68585893 390.38085297 -26.06609924 390.35424245 -34.44633979 390.32657616 C-118.75210974 390.04924322 -203.05824598 389.97445447 -456.06741399 389.87860382 C-459.2724245 389.87824212 -462.47743501 389.87787768 -465.68244553 389.87751007 C-466.47512296 389.87741935 -467.2678004 389.87732863 -468.08449837 389.87723517 C-480.05598274 389.87584039 -492.02746681 389.87368446 -503.99895096 389.87102509 C-537.98817696 389.86353897 -571.97739829 389.85900584 -605.96662503 389.86423802 C-608.91583685 389.8646834 -611.86504867 389.86512117 -614.81426048 389.86555481 C-615.53907649 389.86566412 -616.2638925 389.86577342 -617.01067262 389.86588604 C-626.97911837 389.86733112 -636.94756186 389.86672573 -646.9160074 389.86436354 C-711.89114788 389.8490986 -776.85324904 390.03970411 -841.82246126 390.96889147 Z " fill="#FFFFFF" transform="translate(2529,1)"/>
<path d="M0 0 C4.41481781 0.00460938 8.8293586 -0.00223104 13.24414062 -0.02050781 C108.08996811 -0.40903797 201.91208176 11.41178904 551.99926758 140.60766602 C555.16522856 142.42823671 558.33851327 144.23561205 561.51245117 146.04223633 C574.54702798 153.48337695 587.36491926 161.168892 599.96948242 169.31567383 C601.3363415 170.19118678 602.70352367 171.06619553 604.07104492 171.94067383 C608.38672335 174.70773058 612.68139285 177.5060872 616.96948242 180.31567383 C618.36505371 181.22905518 618.36505371 181.22905518 619.78881836 182.16088867 C631.23159638 189.66778076 642.52218837 197.26875562 653.38745117 205.59301758 C656.83481284 208.23317398 660.35769406 210.75256173 663.90698242 213.25317383 C672.09895265 219.04946768 680.03776167 225.17029152 687.96948242 231.31567383 C688.59918945 231.80213379 689.22889648 232.28859375 689.87768555 232.78979492 C697.37095559 238.58605969 704.68778518 244.55032455 711.89135742 250.70239258 C714.69655562 253.09449652 717.54411399 255.43023234 720.40698242 257.75317383 C729.98114615 265.56257879 739.33691686 273.59725984 748.35571289 282.04345703 C751.09825757 284.60922377 753.87723759 287.11869122 756.71435547 289.57983398 C769.98192939 301.17169012 782.44453626 313.63032874 794.88183594 326.09765625 C797.55638577 328.77762664 800.23632218 331.45212867 802.91674805 334.1262207 C804.64428275 335.85441535 806.37150768 337.58291972 808.09838867 339.31176758 C808.88701797 340.09837265 809.67564728 340.88497772 810.48817444 341.69541931 C814.62222059 345.84687151 818.60351116 350.07306958 822.41517639 354.52325439 C825.12624835 357.64965163 827.99826508 360.62534262 830.84448242 363.62817383 C835.73473573 368.82326067 840.3737796 374.1292014 844.82885742 379.70629883 C847.12068707 382.49998898 849.52180054 385.15776161 851.96948242 387.81567383 C856.86322473 393.14541776 861.43055558 398.68337633 865.96948242 404.31567383 C866.96717047 405.53394946 867.96593153 406.7513469 868.96557617 407.96801758 C876.85522557 417.58716845 884.4728653 427.38812309 891.96948242 437.31567383 C892.5758252 438.11553711 893.18216797 438.91540039 893.80688477 439.73950195 C901.93424915 450.46418501 909.9098972 461.27393098 917.5871582 472.32592773 C918.90676675 474.2253996 920.23274745 476.12028548 921.55932617 478.01489258 C971.28215345 549.36573981 1012.22301385 626.74061213 1077.96948242 809.31567383 C1078.29919037 810.48335297 1078.29919037 810.48335297 1078.63555908 811.67462158 C1102.49645821 896.51509897 1115.54611446 984.52072069 1118.96948242 1091.31567383 C1118.98150696 1091.9976886 1118.99353149 1092.67970337 1119.00592041 1093.38238525 C1120.54208636 1185.59327027 1109.72376755 1277.73940614 977.57983398 1648.55688477 C975.70774815 1651.76406637 973.87910084 1654.99490682 972.05541992 1658.22973633 C964.38020247 1671.82602783 956.47132283 1685.21592946 947.96948242 1698.31567383 C947.00140821 1699.82047944 946.03396304 1701.3256899 945.06713867 1702.83129883 C928.65349398 1728.34997638 911.30502029 1753.14198691 892.96948242 1777.31567383 C892.54602539 1777.87561035 892.12256836 1778.43554688 891.6862793 1779.01245117 C885.13538857 1787.66305291 878.33518191 1796.09571575 871.4621582 1804.4909668 C870.1476204 1806.09791079 868.8374994 1807.70846573 867.52807617 1809.31958008 C862.23663678 1815.82265496 856.84694121 1822.23769556 851.41088867 1828.61987305 C849.96748627 1830.31802229 848.5306682 1832.02157575 847.09448242 1833.72583008 C841.19058618 1840.70414862 835.10529908 1847.47037643 828.83618164 1854.12280273 C825.91885149 1857.21926005 823.04378679 1860.32815196 820.28198242 1863.56567383 C816.69266873 1867.74563407 812.75198398 1871.56334878 808.81323242 1875.40942383 C806.66349394 1877.55384775 804.66540102 1879.7921663 802.68432617 1882.09301758 C798.66897676 1886.72779675 794.37755557 1891.05460358 790.03198242 1895.37817383 C789.27208008 1896.14194336 788.51217773 1896.90571289 787.72924805 1897.69262695 C783.54129673 1901.87342549 779.25971166 1905.86687742 774.77587891 1909.72753906 C772.21429838 1911.97961114 769.85267963 1914.37505018 767.46948242 1916.81567383 C763.83389106 1920.50056346 760.12335276 1924.02303287 756.18432617 1927.38208008 C753.85603202 1929.41471783 751.59771509 1931.50982786 749.33935547 1933.61938477 C743.90790859 1938.69220324 738.3704646 1943.52437761 732.57104492 1948.17895508 C730.01961513 1950.27449876 727.58621469 1952.45530537 725.15698242 1954.69067383 C720.69940111 1958.75265363 716.03784832 1962.47056354 711.27612305 1966.16333008 C707.50036329 1969.09595901 703.80712262 1972.10132335 700.15698242 1975.19067383 C692.63577697 1981.50329248 684.80466552 1987.40065236 676.96948242 1993.31567383 C676.29868652 1993.82388672 675.62789062 1994.33209961 674.93676758 1994.85571289 C670.29986337 1998.36799908 665.64045616 2001.84886437 660.96948242 2005.31567383 C660.33655273 2005.7884375 659.70362305 2006.26120117 659.05151367 2006.74829102 C632.27328574 2026.69616973 603.90008311 2045.1362633 575.1184082 2062.05200195 C573.53970624 2062.98035475 571.96281762 2063.91179297 570.38696289 2064.8449707 C555.43563623 2073.69545383 540.32473933 2082.18627882 524.96948242 2090.31567383 C523.37861816 2091.158479 523.37861816 2091.158479 521.75561523 2092.01831055 C471.19346739 2118.71518485 419.00231333 2141.13903694 364.91259766 2159.64758301 C361.86991453 2160.69373232 358.83460305 2161.76095849 355.79760742 2162.82348633 C271.8973627 2191.83349551 183.49929629 2208.34995773 95.15698242 2215.56567383 C93.63012314 2215.69043594 93.63012314 2215.69043594 92.07241821 2215.81771851 C89.11530066 2216.05644203 86.1577857 2216.28914118 83.19995117 2216.51879883 C81.94243546 2216.61844688 81.94243546 2216.61844688 80.65951538 2216.72010803 C64.52604743 2217.93821042 48.41116767 2218.48033206 32.23510742 2218.51879883 C30.39856952 2218.5257807 28.56203185 2218.53282163 26.72549438 2218.53991699 C20.89015398 2218.55918349 15.05485118 2218.56409291 9.21948242 2218.56567383 C8.22554726 2218.56626297 7.23161209 2218.56685211 6.20755768 2218.56745911 C-23.47629845 2218.57987835 -53.00423477 2218.28542531 -82.58416748 2215.5402832 C-85.03899321 2215.31489565 -87.49463975 2215.10260069 -89.95092773 2214.89379883 C-176.8037174 2207.44537175 -262.41214209 2188.88720664 -505.42358398 2092.71264648 C-508.29026149 2091.17648534 -511.1659974 2089.65807136 -514.04223633 2088.13989258 C-528.91608316 2080.25396449 -543.46796168 2071.90356747 -557.8815918 2063.20922852 C-560.73640134 2061.49253579 -563.60158773 2059.79528648 -566.47192383 2058.10473633 C-579.22078576 2050.53983937 -591.57256532 2042.41002057 -603.90551758 2034.19067383 C-604.72741577 2033.64340637 -605.54931396 2033.09613892 -606.39611816 2032.5322876 C-620.97217304 2022.81358187 -635.37893352 2012.85576709 -649.46801758 2002.44067383 C-650.24894775 2001.86389893 -651.02987793 2001.28712402 -651.83447266 2000.69287109 C-665.26689559 1990.72818567 -678.3571942 1980.34090579 -691.29077148 1969.73950195 C-692.85000085 1968.46341079 -694.41452857 1967.19380001 -695.97973633 1965.92504883 C-702.22268169 1960.85778223 -708.34371141 1955.65937457 -714.43286133 1950.40942383 C-716.76835138 1948.39622258 -719.1140816 1946.39639222 -721.47192383 1944.40942383 C-729.85856602 1937.32360108 -737.88497483 1929.90899464 -745.84912109 1922.35351562 C-747.36659246 1920.93590695 -748.89961143 1919.53483428 -750.44433594 1918.14697266 C-760.62581752 1908.98282464 -770.24386099 1899.25255704 -779.91607666 1889.55706787 C-781.82457899 1887.64595328 -783.7367914 1885.73857215 -785.64898396 1883.83115101 C-787.96220143 1881.5224463 -790.27157344 1879.20990261 -792.58129883 1876.89770508 C-793.42622391 1876.05480423 -794.27114899 1875.21190338 -795.14167786 1874.34346008 C-799.41885129 1870.04946759 -803.55658571 1865.69429147 -807.49653625 1861.08776855 C-810.1985883 1857.96628845 -813.06593771 1854.99900233 -815.90551758 1852.00317383 C-820.79577088 1846.80808698 -825.43481475 1841.50214625 -829.88989258 1835.92504883 C-832.18172223 1833.13135867 -834.5828357 1830.47358605 -837.03051758 1827.81567383 C-841.92420017 1822.48599493 -846.49259602 1816.94870895 -851.03051758 1811.31567383 C-852.06345991 1810.05060584 -853.09737416 1808.78633102 -854.13208008 1807.52270508 C-860.40271251 1799.85694969 -866.56772701 1792.13262828 -872.55786133 1784.24487305 C-874.27828362 1781.99109703 -876.01380843 1779.74929679 -877.74926758 1777.50708008 C-885.52956754 1767.42174988 -892.98692525 1757.20146464 -900.10083008 1746.63598633 C-902.58549917 1742.94828185 -905.1594146 1739.34505568 -907.78051758 1735.75317383 C-936.4811533 1696.08211747 -960.93828545 1652.7289988 -983.09503174 1609.15411377 C-984.05907424 1607.25955356 -985.02584922 1605.36640472 -985.99291992 1603.47338867 C-1007.44045596 1561.4404145 -1025.81053919 1518.08637654 -1041.27130127 1473.50219727 C-1042.0198919 1471.3462755 -1042.77352757 1469.19217286 -1043.52807617 1467.03833008 C-1071.90255315 1385.81854707 -1089.74887132 1301.08022373 -1102.03051758 1161.31567383 C-1102.08981445 1160.17404785 -1102.14911133 1159.03242188 -1102.21020508 1157.85620117 C-1106.87633442 1062.82547764 -1098.22376444 966.76479744 -1020.03051758 688.31567383 C-1019.75894836 687.65927917 -1019.48737915 687.00288452 -1019.20758057 686.32659912 C-1011.93439202 668.78466299 -1004.14876799 651.48156103 -996.03051758 634.31567383 C-995.73920959 633.69911926 -995.44790161 633.0825647 -995.14776611 632.44732666 C-987.38953042 616.04008911 -979.37455489 599.85059727 -970.51635742 584.00219727 C-968.95865324 581.18573706 -967.43775933 578.35185005 -965.92504883 575.51098633 C-958.09408969 560.81773514 -949.74604675 546.5009489 -941.03051758 532.31567383 C-940.4035498 531.2940918 -939.77658203 530.27250977 -939.13061523 529.2199707 C-930.4054099 515.04179335 -921.37599156 501.09231473 -912.03051758 487.31567383 C-911.54631348 486.59976074 -911.06210938 485.88384766 -910.56323242 485.14624023 C-899.53049169 468.85760833 -887.91830086 452.98860108 -876.03051758 437.31567383 C-875.60706055 436.7557373 -875.18360352 436.19580078 -874.74731445 435.61889648 C-868.19642373 426.96829475 -861.39621707 418.53563191 -854.52319336 410.14038086 C-853.20865555 408.53343687 -851.89853456 406.92288192 -850.58911133 405.31176758 C-845.29767194 398.8086927 -839.90797637 392.39365209 -834.47192383 386.01147461 C-833.02852142 384.31332537 -831.59170335 382.6097719 -830.15551758 380.90551758 C-823.74185589 373.32427354 -817.09062194 366.01081687 -810.28051758 358.78442383 C-807.58496965 355.92079324 -804.95130135 353.00930837 -802.34301758 350.06567383 C-799.14769282 346.48357791 -795.8191944 343.06339576 -792.40551758 339.69067383 C-789.39163725 336.71005011 -786.45651853 333.73832987 -783.71801758 330.50317383 C-776.54753526 322.12029112 -768.50477967 314.27030744 -760.08520508 307.15161133 C-757.28617344 304.65057546 -754.66793671 301.9852318 -752.03051758 299.31567383 C-748.21042745 295.45369545 -744.35044571 291.73589278 -740.21020508 288.21411133 C-737.89270111 286.19564013 -735.64812134 284.11189058 -733.40258789 282.01416016 C-727.97406438 276.9436045 -722.43861228 272.11450532 -716.64379883 267.46020508 C-714.03204134 265.31692427 -711.52686456 263.09187053 -709.03051758 260.81567383 C-703.85536941 256.11099368 -698.46848918 251.71131039 -693.03051758 247.31567383 C-691.79931671 246.30484615 -690.56889139 245.29307334 -689.33911133 244.28051758 C-680.79368795 237.26068429 -672.08877947 230.51413282 -663.20239258 223.93286133 C-660.88581092 222.20792462 -658.5821706 220.46672532 -656.28051758 218.72192383 C-627.67854267 197.06231284 -597.81260401 176.75815337 -567.03051758 158.31567383 C-566.15991699 157.79247559 -565.28931641 157.26927734 -564.39233398 156.73022461 C-543.82905438 144.39964706 -522.9904669 132.67347824 -501.67651367 121.69165039 C-499.26792352 120.43913018 -496.87475467 119.16305681 -494.48754883 117.87036133 C-418.27806315 76.69669467 -334.00120219 48.07521473 -101.46801758 4.06567383 C-100.64502167 3.98845093 -99.82202576 3.91122803 -98.97409058 3.83166504 C-92.6648009 3.24869967 -86.35067015 2.7644757 -80.03051758 2.31567383 C-78.83173981 2.22847076 -77.63296204 2.1412677 -76.39785767 2.05142212 C-50.93630059 0.25652536 -25.51824169 -0.02882654 0 0 Z M-67.03051758 394.31567383 C-67.81078308 394.40288696 -68.59104858 394.4901001 -69.3949585 394.57995605 C-145.4873413 403.12698839 -219.42890321 423.23908621 -345.51586914 483.87475586 C-347.64677569 485.095786 -349.7840266 486.30312353 -351.92895508 487.49926758 C-377.42670739 501.79346205 -401.85681336 518.52253082 -425.03051758 536.31567383 C-425.70727539 536.83387695 -426.3840332 537.35208008 -427.08129883 537.88598633 C-436.39262204 545.02847243 -445.56534866 552.28438546 -454.44750977 559.95483398 C-456.0943257 561.37052677 -457.75247503 562.771955 -459.41333008 564.17114258 C-470.4725144 573.51601358 -481.1504401 583.27530043 -491.29223633 593.61254883 C-493.0546539 595.339322 -494.89080344 596.91750738 -496.78051758 598.50317383 C-501.04204193 602.16188924 -504.75484595 606.25594232 -508.52636719 610.4050293 C-511.55435944 613.73241961 -514.63595851 616.97036993 -517.84301758 620.12817383 C-521.78571989 624.0286329 -525.43586738 628.09494952 -529.03051758 632.31567383 C-529.93502205 633.36813842 -530.84001023 634.42018743 -531.74536133 635.47192383 C-534.3363134 638.48374121 -536.91770414 641.50361408 -539.49731445 644.52514648 C-540.93485035 646.20395035 -542.37998079 647.87585408 -543.82739258 649.54614258 C-550.42940667 657.20233966 -556.5293724 665.16614891 -562.53198242 673.2980957 C-563.97198638 675.23686936 -565.4287491 677.16140519 -566.89379883 679.08129883 C-580.64979131 697.13720869 -593.39508254 715.82623244 -605.03051758 735.31567383 C-605.5894873 736.24959961 -606.14845703 737.18352539 -606.72436523 738.14575195 C-650.4572589 811.4818815 -681.51891466 891.02595046 -708.03051758 1059.31567383 C-708.12478027 1060.60151367 -708.21904297 1061.88735352 -708.31616211 1063.2121582 C-709.29905929 1077.72872712 -709.27618148 1092.27191692 -709.28051758 1106.81567383 C-709.28095943 1107.49669159 -709.28140129 1108.17770935 -709.28185654 1108.87936401 C-709.29445584 1146.04199935 -706.66778643 1182.5764745 -701.03051758 1219.31567383 C-700.92008118 1220.03674316 -700.80964478 1220.7578125 -700.69586182 1221.50073242 C-687.74060516 1305.3761003 -658.96959691 1387.55710631 -617.03051758 1461.31567383 C-616.61914551 1462.04044922 -616.20777344 1462.76522461 -615.78393555 1463.51196289 C-612.94057279 1468.49220513 -610.00921519 1473.41533438 -607.03051758 1478.31567383 C-606.49088379 1479.20448242 -605.95125 1480.09329102 -605.39526367 1481.0090332 C-588.87863343 1508.09208939 -570.69316854 1534.15295162 -550.4543457 1558.59204102 C-548.44211285 1561.02797448 -546.45744008 1563.48609858 -544.46801758 1565.94067383 C-535.85298177 1576.44221383 -526.95303138 1586.65118887 -517.66821289 1596.56469727 C-515.90635776 1598.44842192 -514.15187479 1600.33885408 -512.39770508 1602.22973633 C-497.93975242 1617.87527092 -497.93975242 1617.87527092 -482.30786133 1632.31958008 C-479.70953951 1634.59701138 -477.20261223 1636.9589481 -474.68994141 1639.33007812 C-468.89505663 1644.79780338 -463.05136495 1650.08139518 -456.81958008 1655.05395508 C-454.19317074 1657.18377441 -451.64210987 1659.37673951 -449.09570312 1661.6003418 C-441.66496831 1668.07778133 -433.92684826 1674.02153373 -425.98803711 1679.85961914 C-424.17945572 1681.2048897 -422.39614902 1682.57598466 -420.62036133 1683.96411133 C-389.80023127 1707.90871364 -355.62062845 1728.3872932 -321.03051758 1746.31567383 C-319.45802246 1747.13479248 -319.45802246 1747.13479248 -317.85375977 1747.97045898 C-292.35876937 1761.18848615 -266.01382951 1772.49613823 -239.03051758 1782.31567383 C-238.40010559 1782.54557007 -237.7696936 1782.77546631 -237.12017822 1783.0123291 C-177.69723004 1804.63299792 -115.98823291 1817.78310096 -53.03051758 1823.31567383 C-52.00456482 1823.40655273 -52.00456482 1823.40655273 -50.95788574 1823.49926758 C-12.26242243 1826.87285038 27.29100611 1826.77906246 65.96948242 1823.31567383 C67.01226349 1823.22446259 67.01226349 1823.22446259 68.07611084 1823.13140869 C150.60669238 1815.883562 231.54643378 1795.17377196 312.32641602 1757.55932617 C314.8425535 1756.37539819 317.36699438 1755.21170342 319.89526367 1754.05395508 C332.23241916 1748.36780397 344.12099286 1741.95258611 355.96948242 1735.31567383 C357.31260498 1734.56664795 357.31260498 1734.56664795 358.68286133 1733.80249023 C387.8161356 1717.51947826 416.09957127 1699.20325081 442.36157227 1678.57641602 C444.04495744 1677.25649481 445.73525695 1675.94580266 447.42651367 1674.63598633 C453.83510447 1669.65693616 460.12556451 1664.56730557 466.29248047 1659.29150391 C469.57410146 1656.48459849 472.90451402 1653.75756656 476.28198242 1651.06567383 C482.49419854 1646.01258841 488.2593826 1640.50514383 494.06713867 1634.99926758 C497.28394769 1631.95041378 500.55045671 1628.96825384 503.84448242 1626.00317383 C509.12525696 1621.17876252 514.21600838 1616.17719622 519.28198242 1611.12817383 C520.03527832 1610.37947021 520.78857422 1609.6307666 521.56469727 1608.859375 C525.64399743 1604.7687861 529.54887439 1600.58822275 533.31884766 1596.21142578 C535.91284737 1593.23222038 538.63434106 1590.37629692 541.34448242 1587.50317383 C545.99461652 1582.5338283 550.4191518 1577.45671211 554.67260742 1572.13989258 C556.81681213 1569.50339597 559.02118118 1566.93859738 561.25585938 1564.37939453 C567.68674789 1556.99997311 573.61280543 1549.33180957 579.40112305 1541.44165039 C580.98714683 1539.29172899 582.59304267 1537.158006 584.20385742 1535.02661133 C644.04434045 1455.45715589 685.06806741 1363.36519168 725.21948242 1108.25317383 C725.21992428 1107.58542309 725.22036613 1106.91767235 725.22082138 1106.22968674 C725.23360419 1069.23423797 722.56023156 1032.88589253 716.96948242 996.31567383 C716.86140259 995.60403076 716.75332275 994.8923877 716.64196777 994.15917969 C711.26410792 958.97301638 702.98539009 924.15993842 691.96948242 890.31567383 C691.75289978 889.64614685 691.53631714 888.97661987 691.31317139 888.2868042 C680.99021757 856.40187468 668.51019868 825.51786226 653.96948242 795.31567383 C653.4827002 794.30359863 652.99591797 793.29152344 652.49438477 792.2487793 C645.24023344 777.26005344 637.34304186 762.70584892 628.96948242 748.31567383 C628.26734619 747.09630127 628.26734619 747.09630127 627.55102539 745.85229492 C614.46685285 723.17586727 599.66476816 701.26323088 583.96948242 680.31567383 C583.3260791 679.45498291 583.3260791 679.45498291 582.66967773 678.5769043 C569.60438884 661.1751596 555.6054131 644.41254133 540.96948242 628.31567383 C540.31077148 627.57575195 539.65206055 626.83583008 538.97338867 626.07348633 C526.5948961 612.17400696 513.9897483 598.07449854 499.83276367 585.96020508 C497.96496449 584.3116863 496.21492618 582.59263801 494.46948242 580.81567383 C490.80665335 577.10367926 486.92842087 573.70720742 482.96948242 570.31567383 C481.97174805 569.45200195 480.97401367 568.58833008 479.94604492 567.69848633 C464.40954476 554.2722185 448.51140715 541.48592173 431.96948242 529.31567383 C431.20490723 528.74961426 430.44033203 528.18355469 429.65258789 527.6003418 C418.05785164 519.02572352 406.15213217 511.02949772 393.96948242 503.31567383 C393.12514648 502.77942383 392.28081055 502.24317383 391.41088867 501.69067383 C316.98097298 454.56305598 235.10273545 422.11240099 88.96948242 395.06567383 C87.68581787 394.91445068 86.40215332 394.76322754 85.07958984 394.60742188 C60.3776441 391.88462696 35.74700299 390.93554151 10.91864014 390.99761581 C8.61616953 391.00327413 6.31370636 391.00608352 4.01123047 391.00869751 C-19.77275937 391.04789988 -43.37978057 391.62119678 -67.03051758 394.31567383 Z " fill="#FFFFFF" transform="translate(2164.030517578125,1050.684326171875)"/>
<path d="M0 0 C2.14187214 2.00355099 4.26232675 4.02821908 6.375 6.0625 C6.89868164 6.56426758 7.42236328 7.06603516 7.96191406 7.58300781 C14.98333094 14.3435671 21.36774327 21.36937016 27.375 29.0625 C28.15230469 30.02285156 28.92960937 30.98320313 29.73046875 31.97265625 C73.61703839 87.16228516 90.21193199 158.7697918 82.375 228.0625 C78.3553143 259.65398031 68.50328615 290.05452774 53.375 318.0625 C53.03146484 318.70944824 52.68792969 319.35639648 52.33398438 320.02294922 C44.72249143 334.30319535 35.79835244 347.67283748 25.375 360.0625 C24.74803223 360.82264404 24.74803223 360.82264404 24.10839844 361.59814453 C13.0630935 374.98435934 1.13913435 387.44275841 -12.625 398.0625 C-14.09453125 399.24005859 -14.09453125 399.24005859 -15.59375 400.44140625 C-68.48911982 442.56333156 -138.04716853 461.3429179 -205.04296875 453.8125 C-252.49536593 447.77387501 -299.52926149 429.71529445 -336.625 399.0625 C-337.14964844 398.63259766 -337.67429687 398.20269531 -338.21484375 397.75976562 C-392.60261174 353.08875715 -428.85621473 290.97853641 -436.80102539 220.52636719 C-439.05591649 197.08650764 -438.38832509 173.29858139 -434.625 150.0625 C-434.4693457 149.08764648 -434.31369141 148.11279297 -434.15332031 147.10839844 C-426.98787527 104.21584419 -407.91587364 63.76282446 -380.625 30.0625 C-380.18494629 29.51803223 -379.74489258 28.97356445 -379.29150391 28.41259766 C-367.84764806 14.38292955 -355.09708721 0.9816712 -340.625 -9.9375 C-339.96338867 -10.44845215 -339.30177734 -10.9594043 -338.62011719 -11.48583984 C-298.6171304 -42.33649493 -251.70245921 -60.26495275 -201.625 -65.9375 C-199.96404297 -66.13666016 -199.96404297 -66.13666016 -198.26953125 -66.33984375 C-127.07862787 -73.35325259 -52.59334954 -48.32501687 0 0 Z " fill="#FFFFFF" transform="translate(3499.625,813.9375)"/>
</svg>
