<?xml version="1.0" encoding="UTF-8"?>
<svg version="1.1" xmlns="http://www.w3.org/2000/svg" width="512" height="512">
<path d="M0 0 C1.01790619 0.00215515 2.03581238 0.0043103 3.08456421 0.00653076 C17.69363523 0.05620146 32.02575853 0.30709809 46.375 3.3125 C47.34985352 3.51117676 48.32470703 3.70985352 49.32910156 3.91455078 C108.89482498 16.37463238 165.24866419 48.2648637 202.375 97.3125 C202.79023926 97.85132812 203.20547852 98.39015625 203.63330078 98.9453125 C228.13415115 130.81517547 244.62642134 167.36831241 252.6875 206.75 C252.83485596 207.46889404 252.98221191 208.18778809 253.1340332 208.9284668 C256.10789088 224.57475609 256.74800362 240.04818046 256.6875 255.9375 C256.68534485 256.95540619 256.6831897 257.97331238 256.68096924 259.02206421 C256.63129854 273.63113523 256.38040191 287.96325853 253.375 302.3125 C253.07698486 303.77478027 253.07698486 303.77478027 252.77294922 305.26660156 C242.52138226 354.27446698 220.18217348 398.27864199 185.375 434.3125 C184.77606934 434.93334473 184.17713867 435.55418945 183.56005859 436.19384766 C175.89623497 444.09500259 168.15501606 451.64016955 159.375 458.3125 C158.83472168 458.72918945 158.29444336 459.14587891 157.73779297 459.57519531 C125.8687531 484.07334707 89.31685217 500.56439938 49.9375 508.625 C49.21860596 508.77235596 48.49971191 508.91971191 47.7590332 509.0715332 C33.08339502 511.86090125 18.55831162 512.66142619 3.64770508 512.62817383 C0.70811513 512.6250221 -2.2304558 512.64854926 -5.16992188 512.67382812 C-18.54306192 512.71848737 -31.43916711 511.51301542 -44.625 509.3125 C-46.33055054 509.03031616 -46.33055054 509.03031616 -48.07055664 508.74243164 C-50.6662622 508.27617402 -53.23774939 507.7574418 -55.8125 507.1875 C-57.20142456 506.88054199 -57.20142456 506.88054199 -58.6184082 506.56738281 C-103.71300222 496.08183329 -144.40193368 473.34639441 -177.625 441.3125 C-178.58889648 440.38945068 -178.58889648 440.38945068 -179.57226562 439.44775391 C-188.74836539 430.62136647 -197.09816554 421.58141996 -204.625 411.3125 C-205.26211914 410.45857666 -205.26211914 410.45857666 -205.91210938 409.58740234 C-212.42768015 400.84658179 -218.26088547 391.80163672 -223.625 382.3125 C-224.0271875 381.60528809 -224.429375 380.89807617 -224.84375 380.16943359 C-237.8691741 357.03404164 -246.61801461 331.86287591 -251.9375 305.875 C-252.08485596 305.15610596 -252.23221191 304.43721191 -252.3840332 303.6965332 C-255.35789088 288.05024391 -255.99800362 272.57681954 -255.9375 256.6875 C-255.93534485 255.66959381 -255.9331897 254.65168762 -255.93096924 253.60293579 C-255.88129854 238.99386477 -255.63040191 224.66174147 -252.625 210.3125 C-252.42632324 209.33764648 -252.22764648 208.36279297 -252.02294922 207.35839844 C-241.90232806 158.9765226 -219.9858123 114.98821731 -185.625 79.3125 C-184.99287598 78.65314453 -184.36075195 77.99378906 -183.70947266 77.31445312 C-174.56502521 67.82619695 -165.26765991 59.0862956 -154.625 51.3125 C-153.47394983 50.45443848 -152.32290823 49.59636549 -151.171875 48.73828125 C-142.98224019 42.70072604 -134.47961724 37.31792698 -125.625 32.3125 C-124.91778809 31.9103125 -124.21057617 31.508125 -123.48193359 31.09375 C-100.34654164 18.0683259 -75.17537591 9.31948539 -49.1875 4 C-48.46860596 3.85264404 -47.74971191 3.70528809 -47.0090332 3.5534668 C-31.36274391 0.57960912 -15.88931954 -0.06050362 0 0 Z M7.375 110.3125 C7.36041748 116.5913623 7.34583496 122.87022461 7.33081055 129.33935547 C7.28049476 150.07462902 7.21405511 170.80982767 7.13928509 191.54502678 C7.09434226 204.11789995 7.05492403 216.69074488 7.02856445 229.26367188 C7.00557221 240.22374386 6.97216031 251.1837264 6.92629844 262.14372742 C6.90238293 267.94558225 6.88364313 273.74734858 6.87738609 279.54925156 C6.87132778 285.01411163 6.85130055 290.47874531 6.82072449 295.9435215 C6.8119563 297.94532638 6.80821914 299.94716085 6.80999184 301.94898415 C6.82375057 324.66250551 6.82375057 324.66250551 0.3125 334.6875 C-1.81368058 337.98009818 -1.81368058 337.98009818 -3.55859375 341.4765625 C-4.9188533 343.81840128 -6.17177217 344.23865119 -8.625 345.3125 C-10.00888637 346.27906655 -11.38342589 347.2591077 -12.75 348.25 C-22.83963643 354.91665799 -33.82341951 355.50812105 -45.625 354.3125 C-56.59987077 352.00543097 -66.22566248 345.48860742 -72.625 336.3125 C-78.99444014 325.65171293 -80.8215675 313.65194376 -78.51953125 301.48828125 C-75.08080337 289.28004648 -68.63563716 280.48750188 -57.625 274.3125 C-50.45019991 270.95430977 -44.14430065 269.16875606 -36.1875 269.1875 C-35.09566406 269.18492187 -34.00382812 269.18234375 -32.87890625 269.1796875 C-29.71055371 269.30900801 -26.74374349 269.76416745 -23.625 270.3125 C-23.59973055 263.6372966 -23.58216732 256.96210543 -23.57006836 250.28686523 C-23.56502675 248.01407409 -23.55819363 245.7412862 -23.54956055 243.46850586 C-23.53748739 240.20946449 -23.53177013 236.95046583 -23.52734375 233.69140625 C-23.52218246 232.66849991 -23.51702118 231.64559357 -23.51170349 230.59169006 C-23.51159019 229.18034035 -23.51159019 229.18034035 -23.51147461 227.74047852 C-23.509254 226.90774918 -23.50703339 226.07501984 -23.50474548 225.21705627 C-23.41495168 223.30216726 -23.41495168 223.30216726 -24.625 222.3125 C-50.02767798 220.11582281 -74.77163418 225.71881828 -94.625 242.3125 C-113.13504319 258.41837688 -124.64631365 278.69220752 -127.625 303.3125 C-128.97461683 328.82544891 -121.78111282 352.21741898 -104.95703125 371.79296875 C-88.30900705 389.77952756 -66.24498247 400.82719941 -41.625 402.3125 C-40.58279297 402.39177734 -40.58279297 402.39177734 -39.51953125 402.47265625 C-15.45016548 403.42548829 7.48006573 394.01863239 25.375 378.3125 C26.12394531 377.65894531 26.87289062 377.00539063 27.64453125 376.33203125 C42.79327643 362.19143374 53.71526942 340.64849746 54.46512032 319.80777168 C54.497767 316.79725729 54.49865218 313.78826539 54.48852539 310.77758789 C54.48874443 309.06430298 54.48874443 309.06430298 54.4889679 307.31640625 C54.48827343 303.55597 54.48050286 299.79558381 54.47265625 296.03515625 C54.47079042 293.42199226 54.46936729 290.80882792 54.46836853 288.19566345 C54.46526759 282.0299681 54.45707095 275.8642906 54.44701904 269.69860309 C54.43581939 262.67560227 54.43033776 255.65260056 54.42532361 248.62959301 C54.41488725 234.19055283 54.39731187 219.75152666 54.375 205.3125 C55.37152588 205.99014404 56.36805176 206.66778809 57.39477539 207.3659668 C58.73309013 208.26893321 60.07155867 209.17167169 61.41015625 210.07421875 C62.06326782 210.51922729 62.71637939 210.96423584 63.38928223 211.42272949 C77.22608387 220.72553442 92.87224925 226.10270865 109.1875 229.125 C110.17242432 229.3111084 110.17242432 229.3111084 111.17724609 229.50097656 C117.08935245 230.49586564 122.1576787 230.3125 128.375 230.3125 C128.375 214.8025 128.375 199.2925 128.375 183.3125 C122.765 182.6525 117.155 181.9925 111.375 181.3125 C91.84994892 175.89961455 75.47896673 165.4735514 65.1796875 147.6171875 C58.6580542 135.64503537 55.88244448 123.87950028 54.375 110.3125 C38.865 110.3125 23.355 110.3125 7.375 110.3125 Z " fill="#000000" transform="translate(255.625,-0.3125)"/>
</svg>
