<?xml version="1.0" encoding="UTF-8"?>
<svg version="1.1" xmlns="http://www.w3.org/2000/svg" width="827" height="579">
<path d="M0 0 C2.74427182 -0.00073018 5.48853913 -0.00289966 8.23280978 -0.00549722 C17.95865373 -0.01465785 27.68448432 -0.01884511 37.41033244 -0.01804566 C45.2576842 -0.01751677 53.10498565 -0.02449955 60.95232463 -0.03855348 C100.75694164 -0.10818784 140.5399467 -0.04627039 180.33098674 1.09303832 C181.0649943 1.11398378 181.79900186 1.13492923 182.55525208 1.1565094 C386.02192678 7.01119496 386.02192678 7.01119496 426.08879924 48.68288207 C466.22774208 92.25741521 461.81808998 174.92948414 464.11351848 230.05995727 C464.19813627 232.07340581 464.28763563 234.08664742 464.37737346 236.09987426 C473.98542417 456.71440371 473.98542417 456.71440371 424.74504924 531.40944457 C423.90586955 532.3195227 423.06668986 533.22960082 422.20208049 534.16725707 C421.6207133 534.8298352 421.03934611 535.49241332 420.44036174 536.17506957 C377.13988886 583.07482608 281.3129159 574.16411748 223.72307658 576.47194457 C216.19591096 576.7649062 208.66800649 577.03389295 201.13958049 577.29225707 C200.02409831 577.33086852 198.90861613 577.36947997 197.75933146 577.40926147 C189.96722694 577.67415664 182.17442291 577.90098475 174.38058925 578.10855269 C172.09033306 578.17026833 169.80015568 578.23452075 167.50997233 578.29887938 C130.24746378 579.33062449 92.98529351 579.36864425 55.71173453 579.35548139 C53.24576059 579.3547515 50.77978702 579.35450505 48.31381297 579.35439467 C-1.37318993 579.35100709 -51.02850646 579.16436567 -100.6852715 577.24810576 C-102.84053759 577.16562612 -104.99587658 577.0853869 -107.15125203 577.00581908 C-208.54334688 573.2587034 -208.54334688 573.2587034 -252.79791951 566.16725707 C-253.76826131 566.01289184 -254.73860311 565.8585266 -255.7383492 565.69948363 C-285.93817244 560.72056541 -311.57797757 546.64621779 -329.98541951 521.54225707 C-358.15361032 481.63131664 -357.20746459 422.40003602 -359.92291951 375.16725707 C-359.96153096 374.49859618 -360.00014241 373.82993529 -360.03992391 373.14101195 C-360.27732096 368.95946006 -360.48872335 364.77711667 -360.68363118 360.59337401 C-360.76262484 358.91649368 -360.84479919 357.23976125 -360.92954183 355.56316161 C-362.01187942 333.83392538 -361.99904726 312.1052265 -361.98541951 290.35475707 C-361.98515264 289.40060409 -361.98488576 288.4464511 -361.9846108 287.46338439 C-361.97449775 258.65072536 -361.79599311 229.92228421 -359.79791951 201.16725707 C-359.66224509 199.14577907 -359.52667019 197.12429439 -359.39118123 195.10280395 C-351.06513656 72.72737264 -351.06513656 72.72737264 -313.48371053 39.00734496 C-262.54136089 -4.71444498 -169.03028279 4.33903672 -106.54791951 2.04225707 C-105.50348683 2.00364562 -104.45905416 1.96503417 -103.382972 1.92525268 C-68.92865426 0.67333594 -34.47642103 0.00521014 0 0 Z M-30.79791951 166.16725707 C-30.79791951 247.34725707 -30.79791951 328.52725707 -30.79791951 412.16725707 C-26.91330514 410.61341132 -23.62606394 409.02961019 -20.02838826 406.96413207 C-18.90480916 406.32080932 -17.78123006 405.67748656 -16.62360311 405.01466918 C-15.4108023 404.31565835 -14.19807632 403.61651768 -12.98541951 402.91725707 C-11.72331973 402.19254227 -10.4611112 401.46801683 -9.19879842 400.74367309 C-0.35657691 395.66432774 8.45826683 390.53820603 17.25994182 385.38893676 C24.55778849 381.12003166 31.87552499 376.88667958 39.20208049 372.66725707 C47.55010497 367.85880984 55.88456352 363.02828612 64.20208049 358.16725707 C73.61198379 352.66780171 83.04678612 347.21276511 92.49114299 341.77272582 C99.74159538 337.59376579 106.97696318 333.38985201 114.20208049 329.16725707 C122.51959827 324.30622755 130.85412212 319.47582011 139.20208049 314.66725707 C147.98636644 309.60685234 156.7581043 304.52564727 165.51458049 299.41725707 C166.51682658 298.83266723 167.51907268 298.24807738 168.55168986 297.6457727 C172.37938756 295.41078361 172.37938756 295.41078361 176.20208049 293.16725707 C177.12658 292.65517699 178.05107951 292.14309691 179.00359416 291.61549926 C180.09184489 290.89861938 180.09184489 290.89861938 181.20208049 290.16725707 C181.20208049 289.50725707 181.20208049 288.84725707 181.20208049 288.16725707 C180.6310258 287.84676391 180.05997111 287.52627074 179.47161174 287.19606566 C167.38833767 280.4076285 155.35647401 273.54036799 143.39495158 266.53957152 C132.7856126 260.33128904 122.13579546 254.19396933 111.48430705 248.05837035 C106.05548106 244.93045559 100.62888768 241.79867259 95.20208049 238.66725707 C93.03542466 237.41723828 90.86875799 236.16723829 88.70208049 234.91725707 C23.70208049 197.41725707 23.70208049 197.41725707 20.4479301 195.53981566 C18.29515233 194.29785963 16.14232085 193.05599667 13.989434 191.81422973 C8.95591134 188.91078794 3.92290001 186.00647207 -1.10813069 183.09871459 C-2.88154559 182.07380304 -4.65513597 181.04919584 -6.42877889 180.02467895 C-8.64787725 178.74272969 -10.86664967 177.460216 -13.08502889 176.1770227 C-14.09500936 175.59372191 -15.10498982 175.01042113 -16.14557576 174.40944457 C-17.02221883 173.90268188 -17.89886189 173.39591918 -18.8020699 172.87380004 C-22.78264736 170.60632091 -26.7933194 168.39203491 -30.79791951 166.16725707 Z " fill="#FFFFFF" transform="translate(361.79791951179504,-0.16725707054138184)"/>
</svg>
